<svg width="1020" height="272" xmlns="http://www.w3.org/2000/svg"><style>.st0{fill:#2D2926;}
.st1{fill:#007399;}
.st2{fill:#FFFFFF;}</style><g><title>background</title><rect fill="none" id="canvas_background" height="274" width="1022" y="-1" x="-1"/></g><g><title>Layer 1</title><g transform="translate(-104,-106)" id="svg_1"><path id="svg_2" d="m363.68 335.89c1.76 1.65 10.22 8.68 23.64 8.68 14.29.0 24.51-9.34 24.51-20.78.0-13.41-10.88-19.46-23.63-24.62-9.13-3.74-13.96-7.59-13.96-13.85.0-4.07 3.19-9.89 12.42-9.89 6.37.0 10.55 2.75 14.84 5.5 1.54.99 2.97.33 3.85-1.1l2.75-4.18c1.1-1.65.22-3.19-.66-3.74-1.1-.77-9.34-6.49-20.34-6.49-17.48.0-24.07 11.76-24.07 20.34.0 12.75 8.79 18.58 20.01 23.3 10.88 4.51 16.6 8.68 16.6 15.28.0 5.6-4.84 10.22-12.42 10.22-8.46.0-12.42-3.3-17.59-7.58-1.21-.99-2.86-.55-3.74.88l-2.86 4.51c-1.22 1.87-.34 2.64.65 3.52m67.94-30.78c0 21.99 17.7 39.46 39.68 39.46 9.78.0 19.24-3.41 26.71-10.66.77-.77.99-2.2.11-2.97l-5.06-4.95c-.66-.55-1.65-.66-2.64.11-5.28 4.07-10.88 7.25-18.91 7.25-15.72.0-27.7-13.08-27.7-28.47s11.87-28.58 27.59-28.58c6.82.0 13.85 2.86 19.02 7.36.99.99 1.98.99 2.75.0l4.84-4.95c.88-.88.88-2.2-.11-3.08-7.48-6.49-15.5-10.22-26.6-10.22-21.99.01-39.68 17.71-39.68 39.7m91.35 36.27c0 1.1.99 2.09 2.09 2.09h7.26c1.21.0 2.09-.99 2.09-2.09v-31.77h40.23v31.77c0 1.1.88 2.09 2.09 2.09h7.26c1.1.0 2.09-.99 2.09-2.09v-72.77c0-1.1-.99-2.09-2.09-2.09h-7.26c-1.21.0-2.09.99-2.09 2.09v30.67H534.4v-30.67c0-1.1-.88-2.09-2.09-2.09h-7.26c-1.1.0-2.09.99-2.09 2.09v72.77h.01zm86.07-36.27c0 21.99 17.48 39.46 39.46 39.46s39.57-17.48 39.57-39.46c0-21.98-17.59-39.68-39.57-39.68s-39.46 17.69-39.46 39.68m10.99.0c0-15.61 12.86-29.02 28.47-29.02 15.72.0 28.58 13.41 28.58 29.02.0 15.72-12.86 28.8-28.58 28.8-15.6.0-28.47-13.09-28.47-28.8m88.49.0c0 21.99 17.48 39.46 39.46 39.46 21.99.0 39.57-17.48 39.57-39.46.0-21.98-17.59-39.68-39.57-39.68-21.98-.01-39.46 17.69-39.46 39.68m11 0c0-15.61 12.86-29.02 28.47-29.02 15.72.0 28.58 13.41 28.58 29.02.0 15.72-12.86 28.8-28.58 28.8-15.61.0-28.47-13.09-28.47-28.8m93.21 36.27c0 1.1.88 2.09 2.09 2.09h39.13c1.21.0 2.09-.99 2.09-2.09v-6.05c0-1.1-.88-2.09-2.09-2.09h-29.79V268.6c0-1.1-.99-2.09-2.09-2.09h-7.25c-1.21.0-2.09.99-2.09 2.09v72.78z" class="st0"/><path id="svg_3" d="m380.39 217.4c.22.88 1.1 1.54 1.98 1.54h1.76c1.1.0 1.54-.55 1.87-1.21l19.46-49.8h.54l19.68 49.8c.22.66.88 1.21 1.87 1.21h1.76c.88.0 1.76-.66 1.98-1.54l20.78-73.87c.44-1.54-.44-2.64-1.98-2.64h-10.11c-.88.0-1.76.77-1.98 1.54l-11.21 43.86h-.44L408.75 141c-.22-.66-.77-1.21-1.87-1.21h-1.98c-1.1.0-1.65.55-1.87 1.21l-17.48 45.29h-.44l-11.43-43.86c-.22-.77-1.1-1.54-1.98-1.54h-10.11c-1.54.0-2.42 1.1-1.98 2.64l20.78 73.87zm130.6-39.02c5.72-2.86 10.99-8.91 10.99-17.15.0-11.54-10.11-20.34-23.19-20.34h-25.18c-1.21.0-2.09.99-2.09 2.09v72.77c0 1.1.88 2.09 2.09 2.09h26.6c13.41.0 23.96-8.91 23.96-21.22.0-10.33-6.82-15.5-13.19-17.7v-.54h.01zm-25.29-5.17v-19.24h11.98c5.61.0 9.23 3.85 9.23 9.34s-3.63 9.89-9.23 9.89H485.7v.01zm0 31.66V185.3h13.52c5.5.0 9.67 4.07 9.67 9.56.0 5.71-4.17 10-9.67 10H485.7v.01zm85.53 14.07c15.5.0 25.28-10.44 25.28-21.77.0-14.18-12.31-20.55-22.97-24.84-8.91-3.63-12.97-7.15-12.97-12.31.0-4.18 3.41-7.7 9.68-7.7 6.05.0 10.55 3.08 15.28 6.05 1.32.88 2.97.0 3.85-1.32l4.18-6.27c.77-1.1.44-2.97-.66-3.63-2.2-1.65-10.77-7.36-21.99-7.36-17.48.0-24.73 11.32-24.73 21.1.0 12.97 10.33 19.57 20.67 23.75 9.23 3.74 13.96 7.59 13.96 13.19.0 4.73-4.29 8.46-10 8.46-7.14.0-12.09-3.41-16.6-6.82-.99-.77-2.86-.77-3.74.77l-3.96 6.82c-.99 1.76-.55 2.42.55 3.3 3.17 2.75 10.32 8.58 24.17 8.58m81.01-39.47c0 21.98 17.7 39.46 39.68 39.46 9.78.0 19.24-3.41 26.71-10.66.77-.77.99-2.2.11-2.97l-5.06-4.95c-.66-.55-1.65-.66-2.64.11-5.28 4.07-10.88 7.26-18.91 7.26-15.72.0-27.7-13.08-27.7-28.47s11.87-28.58 27.59-28.58c6.82.0 13.85 2.86 19.02 7.37.99.99 1.98.99 2.75.0l4.84-4.95c.88-.88.88-2.2-.11-3.08-7.48-6.49-15.5-10.22-26.6-10.22-21.98.0-39.68 17.7-39.68 39.68m84.98.0c0 21.98 17.48 39.46 39.46 39.46s39.57-17.48 39.57-39.46c0-21.99-17.59-39.68-39.57-39.68-21.99.0-39.46 17.7-39.46 39.68m10.99.0c0-15.61 12.86-29.02 28.47-29.02 15.72.0 28.58 13.41 28.58 29.02.0 15.72-12.86 28.8-28.58 28.8-15.61.0-28.47-13.08-28.47-28.8m91.02 36.28c0 1.1.88 2.09 1.98 2.09h25.29c21.21.0 38.59-17.26 38.59-38.59.0-21.11-17.37-38.37-38.59-38.37h-25.29c-1.1.0-1.98.99-1.98 2.09v72.78zm11.21-8.36v-56.06h14.84c16.16.0 27.59 11.76 27.59 27.92.0 16.27-11.43 28.14-27.59 28.14h-14.84zm79.92 8.36c0 1.1.99 2.09 2.09 2.09h7.26c1.1.0 2.09-.99 2.09-2.09v-72.77c0-1.1-.99-2.09-2.09-2.09h-7.26c-1.1.0-2.09.99-2.09 2.09v72.77zm36.93.0c0 1.1.99 2.09 2.09 2.09h6.93c1.21.0 2.09-.99 2.09-2.09v-53.53h.22l46.28 55.18c1.32 1.54 2.09 1.54 3.19 1.54h.99c1.1.0 2.09-.88 2.09-1.98v-73.98c0-1.1-.99-2.09-2.09-2.09h-7.03c-1.21.0-2.09.99-2.09 2.09v52h-.22l-46.17-53.53c-1.43-1.65-2.2-1.65-3.3-1.65h-.88c-1.1.0-2.09.88-2.09 1.98v73.97h-.01zm86.84-36.28c0 21.98 17.7 39.46 39.58 39.46 15.94.0 27.26-7.26 27.26-7.26.44-.33.88-1.21.88-1.76v-26.6c0-1.1-.88-2.09-1.98-2.09h-20.12c-1.21.0-2.09.88-2.09 2.09v6.38c0 1.1.88 1.98 2.09 1.98h10.77v12.31c-1.1.44-7.36 3.74-16.49 3.74-15.61.0-27.59-13.19-27.59-28.47.0-15.39 11.98-28.58 27.59-28.58 6.71.0 13.52 2.97 18.69 7.48 1.1.99 1.98 1.1 2.86.11 1.65-1.76 3.3-3.41 4.95-5.17.88-.88.77-2.2-.11-3.08-7.48-6.38-16.16-10.22-26.71-10.22-21.88.0-39.58 17.7-39.58 39.68" class="st0"/></g><path transform="translate(-104,-106)" id="svg_4" d="m291.49 375.89H109.43c-1.63.0-2.96-1.32-2.96-2.96v-261.5c0-1.63 1.33-2.96 2.96-2.96h182.06c1.64.0 2.96 1.33 2.96 2.96v261.51c0 1.63-1.32 2.95-2.96 2.95" class="st1"/><path transform="translate(-104,-106)" id="svg_5" d="m157.52 256.93v-34.18h9.42c10.26.0 17.51 7.17 17.51 17.02.0 9.92-7.25 17.16-17.51 17.16h-9.42zm-7.12 5.09c0 .67.56 1.27 1.26 1.27h16.04c13.46.0 24.48-10.52 24.48-23.53.0-12.87-11.02-23.39-24.48-23.39h-16.04c-.7.0-1.26.6-1.26 1.27v44.38z" class="st2"/><path transform="translate(-104,-106)" id="svg_6" d="m207 263.79c-.93.0-1.87-.37-2.56-1.1-1.36-1.42-1.31-3.67.1-5.02l42.56-40.8c1.42-1.35 3.67-1.31 5.02.11 1.36 1.42 1.31 3.67-.1 5.02l-42.56 40.79c-.69.67-1.57 1-2.46 1" class="st2"/><path transform="translate(-104,-106)" id="svg_7" d="m150.4 332.06c0 .67.63 1.27 1.33 1.27h4.39c.77.0 1.32-.6 1.32-1.27v-32.64h.14l29.37 33.65c.83.94 1.32.94 2.02.94h.63c.7.0 1.33-.54 1.33-1.21v-45.11c0-.67-.63-1.27-1.33-1.27h-4.46c-.77.0-1.32.6-1.32 1.27v31.7h-.14l-29.3-32.64c-.91-1-1.39-1-2.09-1h-.56c-.7.0-1.33.54-1.33 1.21v45.1z" class="st2"/><path transform="translate(-104,-106)" id="svg_8" d="m207.55 309.95c0 13.4 11.23 24.06 25.11 24.06 10.11.0 17.3-4.42 17.3-4.42.28-.2.56-.74.56-1.07V312.3c0-.67-.56-1.27-1.26-1.27H236.5c-.77.0-1.33.54-1.33 1.27v3.89c0 .67.56 1.21 1.33 1.21h6.84v7.51c-.7.27-4.68 2.28-10.46 2.28-9.91.0-17.51-8.04-17.51-17.36.0-9.38 7.6-17.43 17.51-17.43 4.25.0 8.58 1.81 11.86 4.56.7.6 1.26.67 1.81.07 1.05-1.07 2.09-2.08 3.14-3.15.56-.54.49-1.34-.07-1.88-4.74-3.89-10.25-6.23-16.95-6.23-13.89-.02-25.12 10.77-25.12 24.18" class="st2"/><path transform="translate(-104,-106)" id="svg_9" d="m147.92 172.75c0 13.4 11.23 24.06 25.18 24.06 6.21.0 12.2-2.08 16.95-6.5.49-.47.63-1.34.07-1.81l-3.21-3.02c-.42-.33-1.05-.4-1.67.07-3.35 2.48-6.9 4.42-12 4.42-9.97.0-17.58-7.98-17.58-17.36s7.53-17.43 17.51-17.43c4.33.0 8.79 1.74 12.07 4.49.63.6 1.26.6 1.74.0l3.07-3.02c.56-.54.56-1.34-.07-1.88-4.74-3.95-9.84-6.23-16.88-6.23-13.95.01-25.18 10.8-25.18 24.21" class="st2"/><path transform="translate(-104,-106)" id="svg_10" d="m210.21 172.75c0-9.52 8.16-17.69 18.07-17.69 9.97.0 18.13 8.18 18.13 17.69.0 9.58-8.16 17.56-18.13 17.56-9.91.0-18.07-7.98-18.07-17.56m-6.98.0c0 13.4 11.09 24.06 25.04 24.06s25.11-10.66 25.11-24.06-11.16-24.2-25.11-24.2c-13.95.0-25.04 10.79-25.04 24.2" class="st2"/><g id="svg_11"/><g id="svg_12"/><g id="svg_13"/><g id="svg_14"/><g id="svg_15"/><g id="svg_16"/></g></svg>